
<svg width="22px" height="17px" viewBox="0 0 22 17" version="1.1" xmlns="http://www.w3.org/2000/svg" xmlns:xlink="http://www.w3.org/1999/xlink">
    <!-- Generator: Sketch 46.1 (44463) - http://www.bohemiancoding.com/sketch -->
    <desc>Created with Sketch.</desc>
    <defs></defs>
    <g id="Page-1" stroke="none" stroke-width="1" fill="none" fill-rule="evenodd">
        <g id="Active-Sections" transform="translate(-19.000000, -140.000000)">
            <g id="Group-21" transform="translate(0.000000, 118.000000)">
                <g id="Group-29">
                    <g id="Rectangle-2-+-Overview-+-icon_configure-copy-7-+-Oval-70-+-ic_filter_list_black_24px-Copy">
                        <g id="Group-26">
                            <g id="Rectangle-2-+-Overview-+-icon_configure-copy-7-+-Oval-70-+-ic_filter_list_black_24px-Copy">
                                <g id="icon_configure-copy-7-+-Oval-70-+-ic_filter_list_black_24px-Copy">
                                    <g id="Group-10" transform="translate(17.000000, 18.000000)">
                                        <g id="ic_chrome_reader_mode_black_24px" transform="translate(1.921162, 4.000000)" fill="#8293B9">
                                            <path d="M20.0788382,0 L2.07883817,0 C0.978838174,0 0.0788381743,0.9 0.0788381743,2 L0.0788381743,15 C0.0788381743,16.1 0.978838174,17 2.07883817,17 L20.0788382,17 C21.1788382,17 22.0788382,16.1 22.0788382,15 L22.0788382,2 C22.0788382,0.9 21.1788382,0 20.0788382,0 L20.0788382,0 Z M11.0788382,15 L11.0788382,2 L20.0788382,2 L20.0788382,15 L11.0788382,15 Z M13.0788382,4 L18.0788382,4 L18.0788382,6 L13.0788382,6 L13.0788382,4 Z M13.0788382,8 L18.0788382,8 L18.0788382,10 L13.0788382,10 L13.0788382,8 Z" id="Shape"></path>
                                        </g>
                                        <polygon id="Shape" points="0.925311203 0 24.9253112 0 24.9253112 24 0.925311203 24"></polygon>
                                    </g>
                                </g>
                            </g>
                        </g>
                    </g>
                </g>
            </g>
        </g>
    </g>
</svg>
