
<svg width="18px" height="21px" viewBox="0 0 18 21" version="1.1" xmlns="http://www.w3.org/2000/svg" xmlns:xlink="http://www.w3.org/1999/xlink">
    <!-- Generator: Sketch 46.1 (44463) - http://www.bohemiancoding.com/sketch -->
    <desc>Created with Sketch.</desc>
    <defs></defs>
    <g id="Page-1" stroke="none" stroke-width="1" fill="none" fill-rule="evenodd">
        <g id="Active-Sections" transform="translate(-21.000000, -315.000000)">
            <g id="Group-21" transform="translate(0.000000, 118.000000)">
                <g id="Group-29">
                    <g id="Rectangle-2-+-Model-Response-+-icon_configure-copy-7-+-Oval-70-+-ic_filter_list_black_24px-Copy-+-ic_person_pin_black_24px" transform="translate(0.000000, 177.000000)">
                        <g id="Group-19">
                            <g id="icon_configure-copy-7-+-Oval-70-+-ic_filter_list_black_24px-Copy-+-ic_person_pin_black_24px">
                                <g id="icon_configure-copy-7-+-Oval-70-+-ic_filter_list_black_24px-Copy">
                                    <g id="icon_configure-copy-7">
                                        <g id="Rectangle-2-+-ic_settings_black_24px-2">
                                            <rect id="Rectangle-2" x="0" y="0" width="60" height="60"></rect>
                                        </g>
                                    </g>
                                </g>
                                <g id="model_response_icon" fill="#000000" transform="translate(18.000000, 18.000000)">
                                    <path d="M19,2 L5,2 C3.89,2 3,2.9 3,4 L3,18 C3,19.1 3.89,20 5,20 L9,20 L12,23 L15,20 L19,20 C20.1,20 21,19.1 21,18 L21,4 C21,2.9 20.1,2 19,2 L19,2 Z M12,5.3 C13.49,5.3 14.7,6.51 14.7,8 C14.7,9.49 13.49,10.7 12,10.7 C10.51,10.7 9.3,9.49 9.3,8 C9.3,6.51 10.51,5.3 12,5.3 L12,5.3 Z M18,16 L6,16 L6,15.1 C6,13.1 10,12 12,12 C14,12 18,13.1 18,15.1 L18,16 L18,16 Z" id="Shape" fill="#8293B9"></path>
                                    <polygon id="Shape" fill="none" points="0 0 24 0 24 24 0 24"></polygon>
                                </g>
                            </g>
                        </g>
                    </g>
                </g>
            </g>
        </g>
    </g>
</svg>
