
<svg width="18px" height="18px" viewBox="0 0 18 18" version="1.1" xmlns="http://www.w3.org/2000/svg" xmlns:xlink="http://www.w3.org/1999/xlink">
    <!-- Generator: Sketch 46.1 (44463) - http://www.bohemiancoding.com/sketch -->
    <desc>Created with Sketch.</desc>
    <defs></defs>
    <g id="Page-1" stroke="none" stroke-width="1" fill="none" fill-rule="evenodd">
        <g id="Active-Sections" transform="translate(-1372.000000, -161.000000)">
            <g id="Rectangle-2-+-title-+-icon_configure-copy-7-+-Oval-70-+-ic_filter_list_black_24px-+-Clipped-+-ic_playlist_add_black_24px" transform="translate(260.000000, 139.000000)">
                <g id="Group-10" transform="translate(750.000000, 10.000000)">
                    <g id="Rectangle-12-+-ADD-DOMAIN-+-ic_search_black_24px" transform="translate(359.000000, 9.000000)">
                        <g id="ic_search_black_24px">
                            <path d="M15.5,14 L14.71,14 L14.43,13.73 C15.41,12.59 16,11.11 16,9.5 C16,5.91 13.09,3 9.5,3 C5.91,3 3,5.91 3,9.5 C3,13.09 5.91,16 9.5,16 C11.11,16 12.59,15.41 13.73,14.43 L14,14.71 L14,15.5 L19,20.49 L20.49,19 L15.5,14 L15.5,14 Z M9.5,14 C7.01,14 5,11.99 5,9.5 C5,7.01 7.01,5 9.5,5 C11.99,5 14,7.01 14,9.5 C14,11.99 11.99,14 9.5,14 L9.5,14 Z" id="Shape" fill="#D2D8E6"></path>
                            <polygon id="Shape" points="0 0 24 0 24 24 0 24"></polygon>
                        </g>
                    </g>
                </g>
            </g>
        </g>
    </g>
</svg>
