
<svg width="22px" height="18px" viewBox="0 0 22 18" version="1.1" xmlns="http://www.w3.org/2000/svg" xmlns:xlink="http://www.w3.org/1999/xlink">
    <!-- Generator: Sketch 46.1 (44463) - http://www.bohemiancoding.com/sketch -->
    <desc>Created with Sketch.</desc>
    <defs></defs>
    <g id="Page-1" stroke="none" stroke-width="1" fill="none" fill-rule="evenodd">
        <g id="Active-Sections" transform="translate(-19.000000, -80.000000)">
            <g id="Group-17" transform="translate(0.000000, 59.000000)">
                <g id="Group-13">
                    <g id="ic_tab_black_24px" transform="translate(18.000000, 18.000000)">
                        <polygon id="Shape" points="0 0 24 0 24 24 0 24"></polygon>
                        <path d="M21,3 L3,3 C1.9,3 1,3.9 1,5 L1,19 C1,20.1 1.9,21 3,21 L21,21 C22.1,21 23,20.1 23,19 L23,5 C23,3.9 22.1,3 21,3 L21,3 Z M21,19 L3,19 L3,5 L13,5 L13,9 L21,9 L21,19 L21,19 Z" id="Shape" fill="#8293B9"></path>
                    </g>
                </g>
            </g>
        </g>
    </g>
</svg>
