
<svg width="14px" height="23px" viewBox="0 0 14 23" version="1.1" xmlns="http://www.w3.org/2000/svg" xmlns:xlink="http://www.w3.org/1999/xlink">
    <!-- Generator: Sketch 46.1 (44463) - http://www.bohemiancoding.com/sketch -->
    <desc>Created with Sketch.</desc>
    <defs></defs>
    <g id="Page-1" stroke="none" stroke-width="1" fill="none" fill-rule="evenodd">
        <g id="Active-Sections" transform="translate(-23.000000, -256.000000)" fill="#000000">
            <g id="Group-21" transform="translate(0.000000, 118.000000)">
                <g id="Group-29">
                    <g id="Rectangle-2-+-Prompt-and-Response-+-icon_configure-copy-7-+-Oval-70-+-ic_filter_list_black_24px-+-prompt_icon" transform="translate(0.000000, 118.000000)">
                        <g id="Group-9">
                            <g id="icon_configure-copy-7-+-Oval-70-+-ic_filter_list_black_24px-+-prompt_icon">
                                <g id="Oval-70-+-ic_filter_list_black_24px-+-prompt_icon" transform="translate(18.000000, 19.000000)">
                                    <g id="prompt_icon">
                                        <path d="M7,24 L9,24 L9,22 L7,22 L7,24 L7,24 Z M12,13 C13.66,13 14.99,11.66 14.99,10 L15,4 C15,2.34 13.66,1 12,1 C10.34,1 9,2.34 9,4 L9,10 C9,11.66 10.34,13 12,13 L12,13 Z M11,24 L13,24 L13,22 L11,22 L11,24 L11,24 Z M15,24 L17,24 L17,22 L15,22 L15,24 L15,24 Z M19,10 L17.3,10 C17.3,13 14.76,15.1 12,15.1 C9.24,15.1 6.7,13 6.7,10 L5,10 C5,13.41 7.72,16.23 11,16.72 L11,20 L13,20 L13,16.72 C16.28,16.23 19,13.41 19,10 L19,10 Z" id="Shape" fill="#8293B9"></path>
                                        <polygon id="Shape" fill="none" points="0 0 24 0 24 24 0 24"></polygon>
                                    </g>
                                </g>
                            </g>
                        </g>
                    </g>
                </g>
            </g>
        </g>
    </g>
</svg>
